<svg xmlns="http://www.w3.org/2000/svg" viewBox="0 0 750 500"><g id="freepik--background-complete--inject-151"><path d="M721.57,293.66a4.29,4.29,0,0,0,1.84-1.23,4,4,0,0,0,.89-2.48,6.38,6.38,0,0,0-.29-1.69c-.16-.61-.32-1.26-.49-1.94-1.37-5.53-3.33-13.46-5.76-23.24l-1.89-7.7-1-4.09a11.92,11.92,0,0,0-.59-2,3.57,3.57,0,0,0-1.34-1.49,3.49,3.49,0,0,0-2-.49,17.93,17.93,0,0,0-2.16.5L704.28,249l-9.45,2.45L652.75,262.3a3.54,3.54,0,0,0-2.52,4q.66,2.76,1.31,5.49c.89,3.64,1.76,7.24,2.61,10.77,1.71,7.07,3.35,13.89,4.92,20.38.2.81.39,1.62.58,2.42a3.73,3.73,0,0,0,1.06,2,3.34,3.34,0,0,0,2,.93,5.7,5.7,0,0,0,2.22-.34l8.93-2.28,16-4.08,23.2-5.86,6.32-1.56,1.65-.38a4.3,4.3,0,0,1,.57-.11l-.55.18-1.63.46L713.11,296,690,302.08l-16,4.17-8.91,2.31a6.35,6.35,0,0,1-2.47.37,4,4,0,0,1-2.34-1.11,4.4,4.4,0,0,1-1.25-2.29c-.2-.8-.39-1.6-.59-2.42l-5-20.37q-1.29-5.3-2.62-10.77c-.44-1.84-.89-3.68-1.33-5.54a4.28,4.28,0,0,1,3.07-4.85l42.09-10.82,9.46-2.42,4.53-1.16a17.29,17.29,0,0,1,2.28-.51,4,4,0,0,1,2.33.59,4.24,4.24,0,0,1,1.57,1.74,11.88,11.88,0,0,1,.61,2.15c.34,1.39.67,2.76,1,4.1.64,2.68,1.26,5.25,1.84,7.71,2.33,9.8,4.22,17.75,5.53,23.29q.24,1,.45,1.95a6.11,6.11,0,0,1,.27,1.75,4.07,4.07,0,0,1-1,2.57,3.56,3.56,0,0,1-1.39,1A1.89,1.89,0,0,1,721.57,293.66Z" style="fill:#e0e0e0"></path><polygon points="688.53 273.23 697.56 275.95 690.79 282.68 684.03 289.41 681.77 279.96 679.51 270.5 688.53 273.23" style="fill:#e0e0e0"></polygon><path d="M682.68,138.89l-49.34-16.4a6.5,6.5,0,0,1-4.12-8.22L651.92,46a6.51,6.51,0,0,1,8.22-4.12l31.29,10.4,15.93,33-16.45,49.5A6.51,6.51,0,0,1,682.68,138.89Z" style="fill:#ebebeb"></path><path d="M691.43,52.25l-6.38,19.22a6,6,0,0,0,3.83,7.65l18.48,6.15Z" style="fill:#f5f5f5"></path><path d="M684.74,73.24s-1.79,4.58,3,7.88c.18.12.37.23.56.34,2.27,1.23,17.22,9.33,17.34,9l1.72-5.16-18.48-6.15S684.32,77.43,684.74,73.24Z" style="fill:#e0e0e0"></path><path d="M681.17,69.31c-.08.25-5.26-1.25-11.56-3.34s-11.35-4-11.27-4.24S663.6,63,669.9,65.07,681.25,69.06,681.17,69.31Z" style="fill:#fafafa"></path><path d="M692.3,85.08c-.08.24-8.56-2.35-18.93-5.8s-18.72-6.44-18.64-6.69,8.56,2.35,18.93,5.8S692.38,84.83,692.3,85.08Z" style="fill:#fafafa"></path><path d="M692.67,95.28c-.08.24-9.32-2.6-20.63-6.36s-20.41-7-20.32-7.25S661,84.27,672.34,88,692.75,95,692.67,95.28Z" style="fill:#fafafa"></path><path d="M689.82,103.84c-.08.25-9.31-2.6-20.62-6.36s-20.41-7-20.33-7.25,9.32,2.6,20.63,6.36S689.9,103.59,689.82,103.84Z" style="fill:#fafafa"></path><path d="M687,112.4c-.08.25-9.32-2.6-20.63-6.36S645.94,99,646,98.79s9.31,2.6,20.62,6.36S687.06,112.15,687,112.4Z" style="fill:#fafafa"></path><path d="M684.13,121c-.08.25-9.31-2.6-20.62-6.36s-20.41-7-20.33-7.25,9.32,2.6,20.63,6.36S684.21,120.71,684.13,121Z" style="fill:#fafafa"></path><path d="M140.22,180.28a6.29,6.29,0,0,1,.75-.85l2.18-2.19c1.86-1.83,4.44-4.34,7.32-7.08l.07-.07v.37c-2.9-2.69-5.5-5.15-7.37-6.94L141,161.37a5.44,5.44,0,0,1-.76-.83,4.29,4.29,0,0,1,.89.69l2.3,2c1.93,1.72,4.57,4.14,7.47,6.83l.2.19-.19.18-.07.07c-2.88,2.74-5.5,5.21-7.42,7l-2.29,2.07A4.06,4.06,0,0,1,140.22,180.28Z" style="fill:#e0e0e0"></path><path d="M117.84,160.54a6.29,6.29,0,0,1-.75.85l-2.18,2.19c-1.86,1.83-4.44,4.34-7.32,7.08l-.07.07v-.37c2.9,2.69,5.5,5.15,7.37,6.94l2.19,2.15a5.44,5.44,0,0,1,.76.83,4.29,4.29,0,0,1-.89-.69l-2.3-2c-1.93-1.72-4.57-4.14-7.47-6.83l-.2-.19.19-.18.07-.06c2.88-2.75,5.5-5.22,7.42-7l2.29-2.07A4.51,4.51,0,0,1,117.84,160.54Z" style="fill:#e0e0e0"></path><path d="M123.58,184.94c-.13-.05,2.22-6.66,5.25-14.75s5.59-14.63,5.72-14.58-2.22,6.65-5.25,14.75S123.71,185,123.58,184.94Z" style="fill:#e0e0e0"></path><path d="M165.66,199.07s0-.39,0-1.11,0-1.79,0-3.17c0-2.79,0-6.86-.05-12,0-10.36-.06-25.16-.11-43l.21.21-72.81,0h0l.26-.25c0,21.44,0,41.7,0,59.33l-.23-.23,52.58.11,14.91.06,3.95,0h1l.35,0h-1.33l-3.91,0-14.85.06-52.73.11h-.22v-.23c0-17.63,0-37.89,0-59.33v-.26h.26l72.81,0h.21v.22c0,17.9-.08,32.75-.11,43.15,0,5.15,0,9.2,0,12,0,1.36,0,2.41,0,3.14S165.66,199.07,165.66,199.07Z" style="fill:#e0e0e0"></path><path d="M166.23,148.54c0,.14-16.43.25-36.71.25s-36.71-.11-36.71-.25,16.44-.25,36.71-.25S166.23,148.4,166.23,148.54Z" style="fill:#e0e0e0"></path><path d="M98.79,144.21a1,1,0,1,1-1-1A1,1,0,0,1,98.79,144.21Z" style="fill:#e0e0e0"></path><path d="M102.36,144.21a1,1,0,1,1-1-1A1,1,0,0,1,102.36,144.21Z" style="fill:#e0e0e0"></path><path d="M105.93,144.21a1,1,0,1,1-1-1A1,1,0,0,1,105.93,144.21Z" style="fill:#e0e0e0"></path><rect x="41.88" y="48.55" width="81.58" height="66.2" transform="translate(-14.9 18.55) rotate(-11.75)" style="fill:#fff"></rect><path d="M129.35,105.74c-.62-3-5.51-26.19-13.63-64.78l.17.12L36,57.72c0,.05.25-.38.13-.19h0v.11l0,.13.06.28.11.55.23,1.09.46,2.19.9,4.34q.9,4.33,1.79,8.59,1.75,8.5,3.46,16.66c2.26,10.87,4.41,21.22,6.4,30.85l-.18-.12,79.9-16.47L49.51,122.51l-.15,0,0-.16c-2-9.63-4.17-20-6.43-30.84q-1.71-8.14-3.48-16.66L37.64,66.3c-.3-1.44-.6-2.89-.91-4.34l-.45-2.19-.23-1.09-.11-.55-.06-.27,0-.14V57.6c-.13.18.16-.27.14-.22l79.86-16.59.15,0,0,.14C124,79.52,128.74,102.78,129.35,105.74Z" style="fill:#e0e0e0"></path><rect x="45.88" y="53.99" width="73.58" height="55.3" transform="translate(-14.64 18.15) rotate(-11.52)" style="fill:#ebebeb"></rect><polygon points="52.14 116.09 70.46 77.27 90.36 95.17 98.64 81.75 124.24 101.4 52.14 116.09" style="fill:#e0e0e0"></polygon><path d="M91.84,68.62A5.79,5.79,0,1,1,85,64.1,5.79,5.79,0,0,1,91.84,68.62Z" style="fill:#e0e0e0"></path><polygon points="441.91 436.58 441.91 469.02 489.35 469.02 541.68 469.02 541.68 436.58 441.91 436.58" style="fill:#f5f5f5"></polygon><polygon points="437.73 427.51 437.73 436.58 545.17 436.58 545.17 427.51 489.35 427.51 437.73 427.51" style="fill:#e0e0e0"></polygon><polygon points="491.45 469.02 541.68 469.02 541.68 436.58 545.17 436.58 545.17 427.51 489.35 427.51 489.35 435.74 491.45 469.02" style="fill:#e0e0e0"></polygon><rect x="455.87" y="441.81" width="20.23" height="4.88" style="fill:#e0e0e0"></rect><rect x="453.26" y="452.8" width="25.98" height="10.31" style="fill:#fff"></rect><path d="M661.63,460c-1.5-1.29-4.86-5.37-2.27-10.13.95-1.74,3-2.6,4.79-3.37a19.4,19.4,0,0,0,5.25-2.72c2.84-2.42,3.63-6.44,5.52-9.67,2.16-3.71,6.21-6.48,10.49-6.29,4.89.22,9,4.22,10.83,8.78s1.91,9.62,2,14.55c0,2.72-.1,5.79-2.1,7.63-1.84,1.7-4.61,1.72-7.11,1.64l-26.76-.82" style="fill:#f5f5f5"></path><path d="M712.81,386.39H642.44L655.12,462a8.44,8.44,0,0,0,6,6.73l.24.06a4.47,4.47,0,0,0,.63.16,8.34,8.34,0,0,0,1.43.17v.07l.34-.05h31.37a8.8,8.8,0,0,0,1.72-.17,8.48,8.48,0,0,0,7.12-7.39l6.11-52.08.28-2.07h0l2.42-20.63ZM699.54,434.6h-7.22l.72-21.93h8.37Zm2.57-21.93H709l-2.58,21.93h-6.21Zm-20.63,46.25L681,439.86h10.4l-.63,19.06Zm-11.24-19.06h10.1l.44,19.06h-9.06Zm.78,19.06h-8.47c-.81-5.14-1.86-11.83-3-19.06h10Zm-1.19-24.32-1.71-21.93h11.6l.5,21.93Zm11.09,0-.5-21.93h11.93l-.73,21.93Zm-.63-27.19-.46-20.32h13.36l-.67,20.32Zm-.69,0H667.71l-1.57-20.32h13Zm-12.59,0H654.44c-.44-2.81-.86-5.47-1.24-7.86-1.31-8.21-1.81-11.3-2.08-12.46h14.32Zm.41,5.26,1.71,21.93h-10.4c-.35-2.22-.7-4.47-1.06-6.73-.81-5.18-1.63-10.35-2.39-15.2ZM658,434.6h-6.79l-3.68-21.93h7Zm.82,5.26c1,6.6,2.06,13.1,3,19.06h-6.53l-3.19-19.06Zm32.66,19.06.63-19.06h7l-1.63,19.06Zm1.71-51.51.67-20.32h9.71l-1.74,20.32Zm-42.77-20.32c.28,1.47,1.57,9.46,3.29,20.32h-7.07l-3.4-20.32Zm53.15,71.83h-5.44l1.63-19.06h6.05Zm6-51.51h-7.08l1.74-20.32H712Z" style="fill:#e0e0e0"></path></g><g id="freepik--Floor--inject-151"><path d="M714.38,468.85c0,.14-151.51.26-338.36.26s-338.4-.12-338.4-.26,151.48-.26,338.4-.26S714.38,468.71,714.38,468.85Z" style="fill:#263238"></path></g><g id="freepik--Window--inject-151"><rect x="154.52" y="52.25" width="448.43" height="346.24" style="fill:#fff"></rect><rect x="154.52" y="52.25" width="448.43" height="34.91" style="fill:#ebebeb"></rect><circle cx="175.49" cy="69.71" r="5.45" style="fill:#fff"></circle><circle cx="191.95" cy="69.71" r="5.45" style="fill:#fff"></circle><path d="M213.87,69.71a5.45,5.45,0,1,1-5.45-5.45A5.45,5.45,0,0,1,213.87,69.71Z" style="fill:#fff"></path><path d="M380.73,188.81c-.14,0-.26-5.6-.26-12.51s.12-12.51.26-12.51.26,5.6.26,12.51S380.88,188.81,380.73,188.81Z" style="fill:currentColor"></path><path d="M523.16,188.81s0-.28,0-.82,0-1.37,0-2.41c0-2.14,0-5.26-.05-9.28l.1.1-143.94.16-144-.16.1-.1c0,4,0,7.14-.05,9.28,0,1,0,1.85,0,2.41s0,.82,0,.82,0-.28,0-.82,0-1.37,0-2.41c0-2.14,0-5.26-.05-9.28v-.1h.1l144-.16,143.94.16h.1v.1c0,4,0,7.14,0,9.28,0,1,0,1.85,0,2.41S523.16,188.81,523.16,188.81Z" style="fill:currentColor"></path><path d="M235.27,255.11c-.14,0-.26-4.92-.26-11s.12-11,.26-11,.26,4.91.26,11S235.41,255.11,235.27,255.11Z" style="fill:currentColor"></path><path d="M587.91,381.94c0-1.26-.06-46.95-.17-126.83l.17.16-418.33.1h0l.27-.26c0,43.87,0,86.53,0,126.83l-.26-.26,418.36.26-418.36.25h-.25v-.25c0-40.3,0-83,0-126.83v-.26h.29l418.33.09h.17v.17C588,335,587.91,380.68,587.91,381.94Z" style="fill:currentColor"></path><path d="M294.38,363.71a11.75,11.75,0,0,1,3.44-.26c.56,0,1.1,0,1.56,0l-.23.23a5.14,5.14,0,0,1,.23-1.86,5,5,0,0,1,.24,1.86v.23h-.24l-1.56,0A11.36,11.36,0,0,1,294.38,363.71Z" style="fill:currentColor"></path><path d="M284.38,363.71a12.15,12.15,0,0,1,5,0,12.15,12.15,0,0,1-5,0Z" style="fill:currentColor"></path><path d="M274.38,363.71a12.15,12.15,0,0,1,5,0,12.15,12.15,0,0,1-5,0Z" style="fill:currentColor"></path><path d="M264.38,363.71a12.15,12.15,0,0,1,5,0,12.15,12.15,0,0,1-5,0Z" style="fill:currentColor"></path><path d="M254.38,363.71a12.15,12.15,0,0,1,5,0,12.15,12.15,0,0,1-5,0Z" style="fill:currentColor"></path><path d="M244.38,363.71a12.15,12.15,0,0,1,5,0,12.15,12.15,0,0,1-5,0Z" style="fill:currentColor"></path><path d="M234.38,363.71a12.15,12.15,0,0,1,5,0,12.15,12.15,0,0,1-5,0Z" style="fill:currentColor"></path><path d="M224.38,363.71a12.15,12.15,0,0,1,5,0,12.15,12.15,0,0,1-5,0Z" style="fill:currentColor"></path><path d="M214.38,363.71a12.15,12.15,0,0,1,5,0,12.15,12.15,0,0,1-5,0Z" style="fill:currentColor"></path><path d="M204.38,363.71a12.15,12.15,0,0,1,5,0,12.15,12.15,0,0,1-5,0Z" style="fill:currentColor"></path><path d="M194.38,363.71a12.15,12.15,0,0,1,5,0,12.15,12.15,0,0,1-5,0Z" style="fill:currentColor"></path><path d="M186,362.08c.12,0,.21.68.25,1.63l-.25-.24.87,0a6.27,6.27,0,0,1,2.5.26,6.07,6.07,0,0,1-2.5.26h-1.12v-.24C185.81,362.76,185.9,362.08,186,362.08Z" style="fill:currentColor"></path><path d="M186,352.08a12.15,12.15,0,0,1,0,5,12.15,12.15,0,0,1,0-5Z" style="fill:currentColor"></path><path d="M186,342.08a12.15,12.15,0,0,1,0,5,12.15,12.15,0,0,1,0-5Z" style="fill:currentColor"></path><path d="M186,332.08a12.15,12.15,0,0,1,0,5,12.15,12.15,0,0,1,0-5Z" style="fill:currentColor"></path><path d="M186,322.08a12.15,12.15,0,0,1,0,5,12.15,12.15,0,0,1,0-5Z" style="fill:currentColor"></path><path d="M186,312.08a12.15,12.15,0,0,1,0,5,12.15,12.15,0,0,1,0-5Z" style="fill:currentColor"></path><path d="M186,302.08a12.15,12.15,0,0,1,0,5,12.15,12.15,0,0,1,0-5Z" style="fill:currentColor"></path><path d="M186,292.08a12.15,12.15,0,0,1,0,5,12.15,12.15,0,0,1,0-5Z" style="fill:currentColor"></path><path d="M186,282.08a12.15,12.15,0,0,1,0,5,12.15,12.15,0,0,1,0-5Z" style="fill:currentColor"></path><path d="M186,272.08a12.15,12.15,0,0,1,0,5,12.15,12.15,0,0,1,0-5Z" style="fill:currentColor"></path><path d="M195.08,271.15a12.15,12.15,0,0,1-5,0,12.15,12.15,0,0,1,5,0Z" style="fill:currentColor"></path><path d="M205.08,271.15a12.15,12.15,0,0,1-5,0,12.15,12.15,0,0,1,5,0Z" style="fill:currentColor"></path><path d="M215.08,271.15a12.15,12.15,0,0,1-5,0,12.15,12.15,0,0,1,5,0Z" style="fill:currentColor"></path><path d="M225.08,271.15a12.15,12.15,0,0,1-5,0,12.15,12.15,0,0,1,5,0Z" style="fill:currentColor"></path><path d="M235.08,271.15a12.15,12.15,0,0,1-5,0,12.15,12.15,0,0,1,5,0Z" style="fill:currentColor"></path><path d="M245.08,271.15a12.15,12.15,0,0,1-5,0,12.15,12.15,0,0,1,5,0Z" style="fill:currentColor"></path><path d="M255.08,271.15a12.15,12.15,0,0,1-5,0,12.15,12.15,0,0,1,5,0Z" style="fill:currentColor"></path><path d="M265.08,271.15a12.15,12.15,0,0,1-5,0,12.15,12.15,0,0,1,5,0Z" style="fill:currentColor"></path><path d="M275.08,271.15a12.15,12.15,0,0,1-5,0,12.15,12.15,0,0,1,5,0Z" style="fill:currentColor"></path><path d="M285.08,271.15a12.15,12.15,0,0,1-5,0,12.15,12.15,0,0,1,5,0Z" style="fill:currentColor"></path><path d="M295.08,271.15a12.15,12.15,0,0,1-5,0,12.15,12.15,0,0,1,5,0Z" style="fill:currentColor"></path><path d="M299.38,276.85a12.15,12.15,0,0,1,0-5,12.15,12.15,0,0,1,0,5Z" style="fill:currentColor"></path><path d="M299.38,286.85a12.15,12.15,0,0,1,0-5,12.15,12.15,0,0,1,0,5Z" style="fill:currentColor"></path><path d="M299.38,296.85a12.15,12.15,0,0,1,0-5,12.15,12.15,0,0,1,0,5Z" style="fill:currentColor"></path><path d="M299.38,306.85a12.15,12.15,0,0,1,0-5,12.15,12.15,0,0,1,0,5Z" style="fill:currentColor"></path><path d="M299.38,316.85a12.15,12.15,0,0,1,0-5,12.15,12.15,0,0,1,0,5Z" style="fill:currentColor"></path><path d="M299.38,326.85a12.15,12.15,0,0,1,0-5,12.15,12.15,0,0,1,0,5Z" style="fill:currentColor"></path><path d="M299.38,336.85a12.15,12.15,0,0,1,0-5,12.15,12.15,0,0,1,0,5Z" style="fill:currentColor"></path><path d="M299.38,346.85a12.15,12.15,0,0,1,0-5,12.15,12.15,0,0,1,0,5Z" style="fill:currentColor"></path><path d="M299.38,356.85a12.15,12.15,0,0,1,0-5,12.15,12.15,0,0,1,0,5Z" style="fill:currentColor"></path><path d="M565.45,363.6a14.76,14.76,0,0,1,3.93-.26h1.07l-.25.25a9.63,9.63,0,0,1,.25-2.86,9.63,9.63,0,0,1,.25,2.86v.24h-1.32A15.27,15.27,0,0,1,565.45,363.6Z" style="fill:currentColor"></path><path d="M555.45,363.6a12.15,12.15,0,0,1,5,0,12.15,12.15,0,0,1-5,0Z" style="fill:currentColor"></path><path d="M545.45,363.6a12.15,12.15,0,0,1,5,0,12.15,12.15,0,0,1-5,0Z" style="fill:currentColor"></path><path d="M535.45,363.6a12.15,12.15,0,0,1,5,0,12.15,12.15,0,0,1-5,0Z" style="fill:currentColor"></path><path d="M525.45,363.6a12.15,12.15,0,0,1,5,0,12.15,12.15,0,0,1-5,0Z" style="fill:currentColor"></path><path d="M515.45,363.6a12.15,12.15,0,0,1,5,0,12.15,12.15,0,0,1-5,0Z" style="fill:currentColor"></path><path d="M505.45,363.6a12.15,12.15,0,0,1,5,0,12.15,12.15,0,0,1-5,0Z" style="fill:currentColor"></path><path d="M495.45,363.6a12.15,12.15,0,0,1,5,0,12.15,12.15,0,0,1-5,0Z" style="fill:currentColor"></path><path d="M485.45,363.6a12.15,12.15,0,0,1,5,0,12.15,12.15,0,0,1-5,0Z" style="fill:currentColor"></path><path d="M475.45,363.6a12.15,12.15,0,0,1,5,0,12.15,12.15,0,0,1-5,0Z" style="fill:currentColor"></path><path d="M465.45,363.6a12.15,12.15,0,0,1,5,0,12.15,12.15,0,0,1-5,0Z" style="fill:currentColor"></path><path d="M455.45,363.6a12.15,12.15,0,0,1,5,0,12.15,12.15,0,0,1-5,0Z" style="fill:currentColor"></path><path d="M445.45,363.6a12.15,12.15,0,0,1,5,0,12.15,12.15,0,0,1-5,0Z" style="fill:currentColor"></path><path d="M435.45,363.6a12.15,12.15,0,0,1,5,0,12.15,12.15,0,0,1-5,0Z" style="fill:currentColor"></path><path d="M425.45,363.6a12.15,12.15,0,0,1,5,0,12.15,12.15,0,0,1-5,0Z" style="fill:currentColor"></path><path d="M415.45,363.6a12.15,12.15,0,0,1,5,0,12.15,12.15,0,0,1-5,0Z" style="fill:currentColor"></path><path d="M405.45,363.6a12.15,12.15,0,0,1,5,0,12.15,12.15,0,0,1-5,0Z" style="fill:currentColor"></path><path d="M395.45,363.6a12.15,12.15,0,0,1,5,0,12.15,12.15,0,0,1-5,0Z" style="fill:currentColor"></path><path d="M385.45,363.6a12.15,12.15,0,0,1,5,0,12.15,12.15,0,0,1-5,0Z" style="fill:currentColor"></path><path d="M375.45,363.6a12.15,12.15,0,0,1,5,0,12.15,12.15,0,0,1-5,0Z" style="fill:currentColor"></path><path d="M365.45,363.6a12.15,12.15,0,0,1,5,0,12.15,12.15,0,0,1-5,0Z" style="fill:currentColor"></path><path d="M355.45,363.6a12.15,12.15,0,0,1,5,0,12.15,12.15,0,0,1-5,0Z" style="fill:currentColor"></path><path d="M345.45,363.6a12.15,12.15,0,0,1,5,0,12.15,12.15,0,0,1-5,0Z" style="fill:currentColor"></path><path d="M335.45,363.6a12.15,12.15,0,0,1,5,0,12.15,12.15,0,0,1-5,0Z" style="fill:currentColor"></path><path d="M326.63,362.42c.09,0,.17.47.22,1.18l-.22-.22c.38,0,.83,0,1.32,0a6.11,6.11,0,0,1,2.5.26,6.31,6.31,0,0,1-2.5.26c-.49,0-.94,0-1.32,0l-.24,0v-.2C326.45,362.89,326.53,362.42,326.63,362.42Z" style="fill:currentColor"></path><path d="M326.63,352.42a12.15,12.15,0,0,1,0,5,11.71,11.71,0,0,1,0-5Z" style="fill:currentColor"></path><path d="M326.63,342.42a12.15,12.15,0,0,1,0,5,11.71,11.71,0,0,1,0-5Z" style="fill:currentColor"></path><path d="M326.63,332.42a12.15,12.15,0,0,1,0,5,11.71,11.71,0,0,1,0-5Z" style="fill:currentColor"></path><path d="M326.63,322.42a12.15,12.15,0,0,1,0,5,11.71,11.71,0,0,1,0-5Z" style="fill:currentColor"></path><path d="M326.63,312.42a12.15,12.15,0,0,1,0,5,11.71,11.71,0,0,1,0-5Z" style="fill:currentColor"></path><path d="M326.63,302.42a12.15,12.15,0,0,1,0,5,11.71,11.71,0,0,1,0-5Z" style="fill:currentColor"></path><path d="M330.2,296a6.11,6.11,0,0,1-2.5.26l-1.07,0,.23-.24c0,.85-.13,1.43-.23,1.43s-.2-.58-.24-1.43v-.22h.25c.32,0,.68,0,1.07,0A6.31,6.31,0,0,1,330.2,296Z" style="fill:currentColor"></path><path d="M340.2,296a12.15,12.15,0,0,1-5,0,12.15,12.15,0,0,1,5,0Z" style="fill:currentColor"></path><path d="M350.2,296a12.15,12.15,0,0,1-5,0,12.15,12.15,0,0,1,5,0Z" style="fill:currentColor"></path><path d="M360.2,296a12.15,12.15,0,0,1-5,0,12.15,12.15,0,0,1,5,0Z" style="fill:currentColor"></path><path d="M370.2,296a12.15,12.15,0,0,1-5,0,12.15,12.15,0,0,1,5,0Z" style="fill:currentColor"></path><path d="M380.2,296a12.15,12.15,0,0,1-5,0,12.15,12.15,0,0,1,5,0Z" style="fill:currentColor"></path><path d="M390.2,296a12.15,12.15,0,0,1-5,0,12.15,12.15,0,0,1,5,0Z" style="fill:currentColor"></path><path d="M400.2,296a12.15,12.15,0,0,1-5,0,12.15,12.15,0,0,1,5,0Z" style="fill:currentColor"></path><path d="M410.2,296a12.15,12.15,0,0,1-5,0,12.15,12.15,0,0,1,5,0Z" style="fill:currentColor"></path><path d="M420.2,296a12.15,12.15,0,0,1-5,0,12.15,12.15,0,0,1,5,0Z" style="fill:currentColor"></path><path d="M430.2,296a12.15,12.15,0,0,1-5,0,12.15,12.15,0,0,1,5,0Z" style="fill:currentColor"></path><path d="M440.2,296a12.15,12.15,0,0,1-5,0,12.15,12.15,0,0,1,5,0Z" style="fill:currentColor"></path><path d="M450.2,296a12.15,12.15,0,0,1-5,0,12.15,12.15,0,0,1,5,0Z" style="fill:currentColor"></path><path d="M460.2,296a12.15,12.15,0,0,1-5,0,12.15,12.15,0,0,1,5,0Z" style="fill:currentColor"></path><path d="M470.2,296a12.15,12.15,0,0,1-5,0,12.15,12.15,0,0,1,5,0Z" style="fill:currentColor"></path><path d="M480.2,296a12.15,12.15,0,0,1-5,0,12.15,12.15,0,0,1,5,0Z" style="fill:currentColor"></path><path d="M490.2,296a12.15,12.15,0,0,1-5,0,12.15,12.15,0,0,1,5,0Z" style="fill:currentColor"></path><path d="M500.2,296a12.15,12.15,0,0,1-5,0,12.15,12.15,0,0,1,5,0Z" style="fill:currentColor"></path><path d="M510.2,296a12.15,12.15,0,0,1-5,0,12.15,12.15,0,0,1,5,0Z" style="fill:currentColor"></path><path d="M520.2,296a12.15,12.15,0,0,1-5,0,12.15,12.15,0,0,1,5,0Z" style="fill:currentColor"></path><path d="M530.2,296a12.15,12.15,0,0,1-5,0,12.15,12.15,0,0,1,5,0Z" style="fill:currentColor"></path><path d="M540.2,296a12.15,12.15,0,0,1-5,0,12.15,12.15,0,0,1,5,0Z" style="fill:currentColor"></path><path d="M550.2,296a12.15,12.15,0,0,1-5,0,12.15,12.15,0,0,1,5,0Z" style="fill:currentColor"></path><path d="M560.2,296a12.15,12.15,0,0,1-5,0,12.15,12.15,0,0,1,5,0Z" style="fill:currentColor"></path><path d="M570.2,296a12.15,12.15,0,0,1-5,0,12.15,12.15,0,0,1,5,0Z" style="fill:currentColor"></path><path d="M570.45,305.74a12.15,12.15,0,0,1,0-5,12.15,12.15,0,0,1,0,5Z" style="fill:currentColor"></path><path d="M570.45,315.74a12.15,12.15,0,0,1,0-5,12.15,12.15,0,0,1,0,5Z" style="fill:currentColor"></path><path d="M570.45,325.74a12.15,12.15,0,0,1,0-5,12.15,12.15,0,0,1,0,5Z" style="fill:currentColor"></path><path d="M570.45,335.74a12.15,12.15,0,0,1,0-5,12.15,12.15,0,0,1,0,5Z" style="fill:currentColor"></path><path d="M570.45,345.74a12.15,12.15,0,0,1,0-5,12.15,12.15,0,0,1,0,5Z" style="fill:currentColor"></path><path d="M570.45,355.74a12.15,12.15,0,0,1,0-5,12.15,12.15,0,0,1,0,5Z" style="fill:currentColor"></path><rect x="170.9" y="103.61" width="418.35" height="60.71" style="fill:currentColor"></rect><path d="M350.4,127.6h-7.32v-4.31H363v4.31h-7.31v18.55H350.4Z" style="fill:#fff"></path><path d="M364.47,123.29a2.91,2.91,0,0,1,3.17-2.84c1.89,0,3.17,1.17,3.17,2.74a3.18,3.18,0,0,1-6.34.1Zm.62,5.29h5.1v17.57h-5.1Z" style="fill:#fff"></path><path d="M386.25,145.3a7.28,7.28,0,0,1-4.15,1.11c-4.14,0-6.56-2.12-6.56-6.3v-7.22h-2.71V129h2.71v-4.28h5.09V129H385v3.92h-4.38V140a2.05,2.05,0,0,0,2.19,2.32,3.48,3.48,0,0,0,2.06-.65Z" style="fill:#fff"></path><path d="M389.12,121.92h5.1v24.23h-5.1Z" style="fill:#fff"></path><path d="M416.06,138.8H402.77c.49,2.19,2.35,3.53,5,3.53a6,6,0,0,0,4.41-1.7l2.71,2.94c-1.63,1.86-4.08,2.84-7.25,2.84-6.07,0-10-3.82-10-9s4-9,9.37-9c5.16,0,9.14,3.46,9.14,9.11C416.16,137.82,416.09,138.38,416.06,138.8Zm-13.35-3h8.65a4.39,4.39,0,0,0-8.65,0Z" style="fill:#fff"></path><path d="M297.1,231.86a6,6,0,0,1,2.5-.27c-.52.53-.15.15-.26.26h0v-.49l0-.47c0-.3,0-.57.05-.79,0-.45.11-.73.19-.73s.13.28.18.73c0,.22,0,.49.06.79s0,.32,0,.47v.49h0c-.12.12.26-.25-.26.27A6.27,6.27,0,0,1,297.1,231.86Z" style="fill:currentColor"></path><path d="M287.06,231.86a11.8,11.8,0,0,1,5,0,12.25,12.25,0,0,1-5,0Z" style="fill:currentColor"></path><path d="M277,231.86a11.8,11.8,0,0,1,5,0,12.25,12.25,0,0,1-5,0Z" style="fill:currentColor"></path><path d="M267,231.86a11.8,11.8,0,0,1,5,0,12.25,12.25,0,0,1-5,0Z" style="fill:currentColor"></path><path d="M257,231.86a11.76,11.76,0,0,1,5,0,12.2,12.2,0,0,1-5,0Z" style="fill:currentColor"></path><path d="M246.91,231.86a11.8,11.8,0,0,1,5,0,12.25,12.25,0,0,1-5,0Z" style="fill:currentColor"></path><path d="M236.87,231.86a11.8,11.8,0,0,1,5,0,12.25,12.25,0,0,1-5,0Z" style="fill:currentColor"></path><path d="M226.83,231.86a11.8,11.8,0,0,1,5,0,12.25,12.25,0,0,1-5,0Z" style="fill:currentColor"></path><path d="M216.8,231.86a11.8,11.8,0,0,1,5,0,12.25,12.25,0,0,1-5,0Z" style="fill:currentColor"></path><path d="M206.76,231.86a11.8,11.8,0,0,1,5,0,12.25,12.25,0,0,1-5,0Z" style="fill:currentColor"></path><path d="M196.72,231.86a11.8,11.8,0,0,1,5,0,12.25,12.25,0,0,1-5,0Z" style="fill:currentColor"></path><path d="M186.68,231.86a11.8,11.8,0,0,1,5,0,12.25,12.25,0,0,1-5,0Z" style="fill:currentColor"></path><path d="M176.65,231.86a11.8,11.8,0,0,1,5,0,12.25,12.25,0,0,1-5,0Z" style="fill:currentColor"></path><path d="M169.13,229.36a6.27,6.27,0,0,1,.26,2.5c-.52-.53-.15-.15-.26-.27h.5l.47,0,.8,0c.45.05.73.11.73.19s-.28.13-.73.18l-.8.06h-1l-.26-.26A6.07,6.07,0,0,1,169.13,229.36Z" style="fill:currentColor"></path><path d="M169.13,218.4a14.57,14.57,0,0,1,0,5.48,14.57,14.57,0,0,1,0-5.48Z" style="fill:currentColor"></path><path d="M169.13,207.44a14.57,14.57,0,0,1,0,5.48,14.57,14.57,0,0,1,0-5.48Z" style="fill:currentColor"></path><path d="M169.13,196.48a14.57,14.57,0,0,1,0,5.48,14.57,14.57,0,0,1,0-5.48Z" style="fill:currentColor"></path><path d="M171.63,188.5a6.31,6.31,0,0,1-2.5.26l.26-.26h0v1c0,.3,0,.57-.06.8,0,.45-.11.73-.18.73s-.14-.28-.19-.73c0-.23,0-.5-.05-.8l0-.47v-.49h0c.11-.12-.26.26.26-.26A6.11,6.11,0,0,1,171.63,188.5Z" style="fill:currentColor"></path><path d="M181.67,188.5a12.25,12.25,0,0,1-5,0,12.25,12.25,0,0,1,5,0Z" style="fill:currentColor"></path><path d="M191.7,188.5a12.25,12.25,0,0,1-5,0,12.25,12.25,0,0,1,5,0Z" style="fill:currentColor"></path><path d="M201.74,188.5a12.25,12.25,0,0,1-5,0,12.25,12.25,0,0,1,5,0Z" style="fill:currentColor"></path><path d="M211.78,188.5a12.25,12.25,0,0,1-5,0,12.25,12.25,0,0,1,5,0Z" style="fill:currentColor"></path><path d="M221.82,188.5a12.25,12.25,0,0,1-5,0,12.25,12.25,0,0,1,5,0Z" style="fill:currentColor"></path><path d="M231.85,188.5a12.25,12.25,0,0,1-5,0,12.25,12.25,0,0,1,5,0Z" style="fill:currentColor"></path><path d="M241.89,188.5a12.25,12.25,0,0,1-5,0,12.25,12.25,0,0,1,5,0Z" style="fill:currentColor"></path><path d="M251.93,188.5a12.25,12.25,0,0,1-5,0,12.25,12.25,0,0,1,5,0Z" style="fill:currentColor"></path><path d="M262,188.5a12.2,12.2,0,0,1-5,0,12.2,12.2,0,0,1,5,0Z" style="fill:currentColor"></path><path d="M272,188.5a12.25,12.25,0,0,1-5,0,12.25,12.25,0,0,1,5,0Z" style="fill:currentColor"></path><path d="M282,188.5a12.25,12.25,0,0,1-5,0,12.25,12.25,0,0,1,5,0Z" style="fill:currentColor"></path><path d="M292.08,188.5a12.25,12.25,0,0,1-5,0,12.25,12.25,0,0,1,5,0Z" style="fill:currentColor"></path><path d="M299.6,191a6.11,6.11,0,0,1-.26-2.5c.52.52.14.14.25.26h-1c-.3,0-.57,0-.79-.06-.45,0-.73-.11-.73-.18s.28-.14.73-.19l.79-.05.47,0h.5c.12.11-.25-.26.27.26A6.31,6.31,0,0,1,299.6,191Z" style="fill:currentColor"></path><path d="M299.6,202a14.57,14.57,0,0,1,0-5.48,14.57,14.57,0,0,1,0,5.48Z" style="fill:currentColor"></path><path d="M299.6,212.92a14.57,14.57,0,0,1,0-5.48,14.57,14.57,0,0,1,0,5.48Z" style="fill:currentColor"></path><path d="M299.6,223.88a14.57,14.57,0,0,1,0-5.48,14.57,14.57,0,0,1,0,5.48Z" style="fill:currentColor"></path><path d="M195.19,209.33a5.61,5.61,0,0,1,9.71-3.45l-1.51,1.39a3.3,3.3,0,0,0-2.56-1.19,3.26,3.26,0,0,0,0,6.51,3.25,3.25,0,0,0,2.56-1.21l1.51,1.4a5.6,5.6,0,0,1-9.71-3.45Z" style="fill:currentColor"></path><path d="M213.18,210v4.46h-2.12v-1a2.57,2.57,0,0,1-2.38,1.08c-1.83,0-2.92-1-2.92-2.36s1-2.34,3.35-2.34h1.8c0-1-.58-1.54-1.8-1.54a3.7,3.7,0,0,0-2.25.73l-.81-1.59a6,6,0,0,1,3.37-.94C211.8,206.49,213.18,207.59,213.18,210Zm-2.27,2v-.8h-1.55c-1.06,0-1.39.39-1.39.92s.47.94,1.27.94A1.67,1.67,0,0,0,210.91,212Z" style="fill:currentColor"></path><path d="M220.27,214a3.18,3.18,0,0,1-1.84.49c-1.85,0-2.92-.94-2.92-2.8v-3.21H214.3v-1.74h1.21v-1.91h2.26v1.91h1.95v1.74h-1.95v3.18a.91.91,0,0,0,1,1,1.52,1.52,0,0,0,.91-.29Z" style="fill:currentColor"></path><path d="M228.92,211.15H223a2.07,2.07,0,0,0,2.23,1.57,2.63,2.63,0,0,0,2-.76l1.21,1.31a4.1,4.1,0,0,1-3.23,1.26c-2.7,0-4.46-1.69-4.46-4a4,4,0,0,1,4.17-4,3.87,3.87,0,0,1,4.07,4C229,210.71,228.93,211,228.92,211.15ZM223,209.83h3.85a2,2,0,0,0-3.85,0Z" style="fill:currentColor"></path><path d="M238.54,206.6v6.51c0,2.91-1.57,4.24-4.39,4.24a6.48,6.48,0,0,1-3.84-1.07l.9-1.63a4.67,4.67,0,0,0,2.77.89c1.59,0,2.29-.73,2.29-2.14v-.33a3.23,3.23,0,0,1-2.47,1,3.78,3.78,0,1,1,0-7.55,3.14,3.14,0,0,1,2.59,1.12v-1Zm-2.24,3.66a2.06,2.06,0,1,0-2.05,1.92A1.9,1.9,0,0,0,236.3,210.26Z" style="fill:currentColor"></path><path d="M240.06,210.51a4.3,4.3,0,1,1,4.3,4A4,4,0,0,1,240.06,210.51Zm6.29,0a2,2,0,1,0-4,0,2,2,0,1,0,4,0Z" style="fill:currentColor"></path><path d="M255,206.49v2.09l-.51,0a1.92,1.92,0,0,0-2.08,2.18v3.69h-2.27V206.6h2.17v1A3.14,3.14,0,0,1,255,206.49Z" style="fill:currentColor"></path><path d="M264.4,206.6l-3.53,8.3c-.75,1.89-1.83,2.45-3.24,2.45a3.48,3.48,0,0,1-2.18-.71l.83-1.61a2,2,0,0,0,1.28.49c.62,0,1-.27,1.28-1l0-.07-3.39-7.88h2.34l2.19,5.31,2.21-5.31Z" style="fill:currentColor"></path><path d="M272.89,204.25v10.17h-2.36v-8.28h-2v-1.89Z" style="fill:currentColor"></path><path d="M344,277.44h-2v-1.18h5.43v1.18h-2v5.05H344Z" style="fill:currentColor"></path><path d="M347.78,276.26a.79.79,0,0,1,.86-.77.78.78,0,0,1,.87.75.87.87,0,0,1-1.73,0Zm.17,1.45h1.39v4.78H348Z" style="fill:currentColor"></path><path d="M353.71,282.26a1.93,1.93,0,0,1-1.13.3,1.57,1.57,0,0,1-1.78-1.71v-2h-.74v-1.07h.74v-1.16h1.39v1.16h1.19v1.07h-1.19v1.95a.55.55,0,0,0,.59.63.91.91,0,0,0,.56-.18Z" style="fill:currentColor"></path><path d="M354.5,275.89h1.39v6.6H354.5Z" style="fill:currentColor"></path><path d="M361.84,280.49h-3.62a1.27,1.27,0,0,0,1.37,1,1.64,1.64,0,0,0,1.2-.46l.73.8a2.79,2.79,0,0,1-4.7-1.69,2.44,2.44,0,0,1,2.55-2.47,2.37,2.37,0,0,1,2.49,2.49C361.86,280.22,361.84,280.37,361.84,280.49Zm-3.64-.81h2.35a1.19,1.19,0,0,0-2.35,0Z" style="fill:currentColor"></path><path d="M440,233.25a12.15,12.15,0,0,1,5,0,12.15,12.15,0,0,1-5,0Z" style="fill:currentColor"></path><path d="M430,233.25a12.15,12.15,0,0,1,5,0,12.15,12.15,0,0,1-5,0Z" style="fill:currentColor"></path><path d="M420,233.25a12.15,12.15,0,0,1,5,0,12.15,12.15,0,0,1-5,0Z" style="fill:currentColor"></path><path d="M410,233.25a12.15,12.15,0,0,1,5,0,12.15,12.15,0,0,1-5,0Z" style="fill:currentColor"></path><path d="M400,233.25a12.15,12.15,0,0,1,5,0,12.15,12.15,0,0,1-5,0Z" style="fill:currentColor"></path><path d="M390,233.25a12.15,12.15,0,0,1,5,0,12.15,12.15,0,0,1-5,0Z" style="fill:currentColor"></path><path d="M380,233.25a12.15,12.15,0,0,1,5,0,12.15,12.15,0,0,1-5,0Z" style="fill:currentColor"></path><path d="M370,233.25a12.15,12.15,0,0,1,5,0,12.15,12.15,0,0,1-5,0Z" style="fill:currentColor"></path><path d="M360,233.25a12.15,12.15,0,0,1,5,0,12.15,12.15,0,0,1-5,0Z" style="fill:currentColor"></path><path d="M350,233.25a12.15,12.15,0,0,1,5,0,12.15,12.15,0,0,1-5,0Z" style="fill:currentColor"></path><path d="M340,233.25a12.15,12.15,0,0,1,5,0,12.15,12.15,0,0,1-5,0Z" style="fill:currentColor"></path><path d="M330,233.25a12.15,12.15,0,0,1,5,0,12.15,12.15,0,0,1-5,0Z" style="fill:currentColor"></path><path d="M320,233.25a12.15,12.15,0,0,1,5,0,12.15,12.15,0,0,1-5,0Z" style="fill:currentColor"></path><path d="M314.55,228.72a6.31,6.31,0,0,1,.26,2.5,14.85,14.85,0,0,1-.11,2l-.15-.15c.29.05.47.1.47.15s-.18.11-.47.15l-.13,0,0-.17a14.85,14.85,0,0,1-.11-2A6.11,6.11,0,0,1,314.55,228.72Z" style="fill:currentColor"></path><path d="M314.55,218.72a12.15,12.15,0,0,1,0,5,12.15,12.15,0,0,1,0-5Z" style="fill:currentColor"></path><path d="M314.55,208.72a12.15,12.15,0,0,1,0,5,12.15,12.15,0,0,1,0-5Z" style="fill:currentColor"></path><path d="M314.55,198.72a12.15,12.15,0,0,1,0,5,12.15,12.15,0,0,1,0-5Z" style="fill:currentColor"></path><path d="M315.72,189.9c0,.09-.46.17-1.17.22l.22-.22c0,.38,0,.83,0,1.32a6.31,6.31,0,0,1-.26,2.5,6.11,6.11,0,0,1-.26-2.5c0-.49,0-.94,0-1.32v-.24l.21,0C315.26,189.72,315.72,189.8,315.72,189.9Z" style="fill:currentColor"></path><path d="M325.72,189.9a12.15,12.15,0,0,1-5,0,12.15,12.15,0,0,1,5,0Z" style="fill:currentColor"></path><path d="M335.72,189.9a12.15,12.15,0,0,1-5,0,12.15,12.15,0,0,1,5,0Z" style="fill:currentColor"></path><path d="M345.72,189.9a12.15,12.15,0,0,1-5,0,12.15,12.15,0,0,1,5,0Z" style="fill:currentColor"></path><path d="M355.72,189.9a12.15,12.15,0,0,1-5,0,12.15,12.15,0,0,1,5,0Z" style="fill:currentColor"></path><path d="M365.72,189.9a12.15,12.15,0,0,1-5,0,12.15,12.15,0,0,1,5,0Z" style="fill:currentColor"></path><path d="M375.72,189.9a12.15,12.15,0,0,1-5,0,12.15,12.15,0,0,1,5,0Z" style="fill:currentColor"></path><path d="M385.72,189.9a12.15,12.15,0,0,1-5,0,12.15,12.15,0,0,1,5,0Z" style="fill:currentColor"></path><path d="M395.72,189.9a12.15,12.15,0,0,1-5,0,12.15,12.15,0,0,1,5,0Z" style="fill:currentColor"></path><path d="M405.72,189.9a12.15,12.15,0,0,1-5,0,12.15,12.15,0,0,1,5,0Z" style="fill:currentColor"></path><path d="M415.72,189.9a12.15,12.15,0,0,1-5,0,12.15,12.15,0,0,1,5,0Z" style="fill:currentColor"></path><path d="M425.72,189.9a12.15,12.15,0,0,1-5,0,12.15,12.15,0,0,1,5,0Z" style="fill:currentColor"></path><path d="M435.72,189.9a12.15,12.15,0,0,1-5,0,12.15,12.15,0,0,1,5,0Z" style="fill:currentColor"></path><path d="M445,190.61c-.07,0-.14-.27-.19-.71l.19.18a17.55,17.55,0,0,1-1.8.08,6.31,6.31,0,0,1-2.5-.26,6.11,6.11,0,0,1,2.5-.26,17.55,17.55,0,0,1,1.8.08l.19,0v.16C445.15,190.34,445.09,190.61,445,190.61Z" style="fill:currentColor"></path><path d="M445,200.61a12.15,12.15,0,0,1,0-5,12.15,12.15,0,0,1,0,5Z" style="fill:currentColor"></path><path d="M445,210.61a12.15,12.15,0,0,1,0-5,12.15,12.15,0,0,1,0,5Z" style="fill:currentColor"></path><path d="M445,220.61a12.15,12.15,0,0,1,0-5,12.15,12.15,0,0,1,0,5Z" style="fill:currentColor"></path><path d="M445,230.61a12.15,12.15,0,0,1,0-5,12.15,12.15,0,0,1,0,5Z" style="fill:currentColor"></path><path d="M339.18,210.73a5.59,5.59,0,0,1,9.7-3.45l-1.51,1.39a3.28,3.28,0,0,0-2.56-1.19,3.26,3.26,0,0,0,0,6.51,3.24,3.24,0,0,0,2.56-1.21l1.51,1.4a5.59,5.59,0,0,1-9.7-3.45Z" style="fill:currentColor"></path><path d="M357.16,211.36v4.46H355v-1a2.54,2.54,0,0,1-2.38,1.09c-1.83,0-2.92-1-2.92-2.36s1-2.34,3.35-2.34h1.81c0-1-.58-1.54-1.81-1.54a3.78,3.78,0,0,0-2.25.72l-.81-1.58a6,6,0,0,1,3.37-.94C355.78,207.89,357.16,209,357.16,211.36Zm-2.26,2v-.8h-1.56c-1.06,0-1.39.39-1.39.91s.48.95,1.28.95A1.68,1.68,0,0,0,354.9,213.35Z" style="fill:currentColor"></path><path d="M364.25,215.44a3.24,3.24,0,0,1-1.84.49c-1.85,0-2.92-.94-2.92-2.8v-3.21h-1.21v-1.74h1.21v-1.91h2.27v1.91h1.94v1.74h-1.94v3.18a.91.91,0,0,0,1,1,1.5,1.5,0,0,0,.91-.29Z" style="fill:currentColor"></path><path d="M372.9,212.55H367a2.07,2.07,0,0,0,2.23,1.57,2.63,2.63,0,0,0,2-.76l1.21,1.31a4.09,4.09,0,0,1-3.22,1.26c-2.71,0-4.46-1.7-4.46-4a4,4,0,0,1,4.16-4,3.87,3.87,0,0,1,4.07,4.05C372.94,212.11,372.91,212.36,372.9,212.55ZM367,211.23h3.85a2,2,0,0,0-3.85,0Z" style="fill:currentColor"></path><path d="M382.52,208v6.51c0,2.91-1.57,4.24-4.39,4.24a6.43,6.43,0,0,1-3.83-1.07l.9-1.63a4.62,4.62,0,0,0,2.76.89c1.59,0,2.29-.73,2.29-2.14v-.33a3.22,3.22,0,0,1-2.47,1,3.78,3.78,0,1,1,0-7.55,3.16,3.16,0,0,1,2.59,1.11v-1Zm-2.24,3.66a2.06,2.06,0,1,0-2,1.92A1.9,1.9,0,0,0,380.28,211.66Z" style="fill:currentColor"></path><path d="M384.05,211.91a4.3,4.3,0,1,1,4.3,4A4,4,0,0,1,384.05,211.91Zm6.29,0a2,2,0,1,0-2,2.16A2,2,0,0,0,390.34,211.91Z" style="fill:currentColor"></path><path d="M399,207.89V210l-.51,0a1.92,1.92,0,0,0-2.08,2.18v3.69h-2.26V208h2.16v1A3.16,3.16,0,0,1,399,207.89Z" style="fill:currentColor"></path><path d="M408.38,208l-3.53,8.3c-.75,1.89-1.83,2.45-3.24,2.45a3.48,3.48,0,0,1-2.18-.71l.83-1.61a2,2,0,0,0,1.28.49c.63,0,1-.27,1.28-1l0-.07L399.46,208h2.34l2.2,5.3,2.2-5.3Z" style="fill:currentColor"></path><path d="M420.55,213.9v1.92h-7.69v-1.53l3.92-3.7c.9-.86,1.06-1.38,1.06-1.88,0-.79-.55-1.26-1.62-1.26a2.46,2.46,0,0,0-2.11,1l-1.71-1.11a4.72,4.72,0,0,1,4-1.89c2.27,0,3.78,1.17,3.78,3,0,1-.27,1.89-1.7,3.21l-2.34,2.21Z" style="fill:currentColor"></path><path d="M419,287.66a12.15,12.15,0,0,1,5,0,12.15,12.15,0,0,1-5,0Z" style="fill:currentColor"></path><path d="M409,287.66a12.15,12.15,0,0,1,5,0,12.15,12.15,0,0,1-5,0Z" style="fill:currentColor"></path><path d="M399,287.66a12.15,12.15,0,0,1,5,0,12.15,12.15,0,0,1-5,0Z" style="fill:currentColor"></path><path d="M389,287.66a12.15,12.15,0,0,1,5,0,12.15,12.15,0,0,1-5,0Z" style="fill:currentColor"></path><path d="M379,287.66a12.15,12.15,0,0,1,5,0,12.15,12.15,0,0,1-5,0Z" style="fill:currentColor"></path><path d="M369,287.66a12.15,12.15,0,0,1,5,0,12.15,12.15,0,0,1-5,0Z" style="fill:currentColor"></path><path d="M359,287.66a12.15,12.15,0,0,1,5,0,12.15,12.15,0,0,1-5,0Z" style="fill:currentColor"></path><path d="M349,287.66a12.15,12.15,0,0,1,5,0,12.15,12.15,0,0,1-5,0Z" style="fill:currentColor"></path><path d="M339,287.66a12.15,12.15,0,0,1,5,0,12.15,12.15,0,0,1-5,0Z" style="fill:currentColor"></path><path d="M329,287.66a12.15,12.15,0,0,1,5,0,12.15,12.15,0,0,1-5,0Z" style="fill:currentColor"></path><path d="M326.63,280a12.15,12.15,0,0,1,0,5,11.71,11.71,0,0,1,0-5Z" style="fill:currentColor"></path><path d="M327.63,271c0,.09-.39.16-1,.21l.2-.21c0,.42.06.94.06,1.5a6.31,6.31,0,0,1-.26,2.5,6,6,0,0,1-.27-2.5c0-.56,0-1.08.06-1.5v-.22l.2,0C327.24,270.87,327.63,271,327.63,271Z" style="fill:currentColor"></path><path d="M337.63,271a12.15,12.15,0,0,1-5,0,12.15,12.15,0,0,1,5,0Z" style="fill:currentColor"></path><path d="M347.63,271a12.15,12.15,0,0,1-5,0,12.15,12.15,0,0,1,5,0Z" style="fill:currentColor"></path><path d="M357.63,271a12.15,12.15,0,0,1-5,0,12.15,12.15,0,0,1,5,0Z" style="fill:currentColor"></path><path d="M367.63,271a12.15,12.15,0,0,1-5,0,12.15,12.15,0,0,1,5,0Z" style="fill:currentColor"></path><path d="M377.63,271a12.15,12.15,0,0,1-5,0,12.15,12.15,0,0,1,5,0Z" style="fill:currentColor"></path><path d="M387.63,271a12.15,12.15,0,0,1-5,0,12.15,12.15,0,0,1,5,0Z" style="fill:currentColor"></path><path d="M397.63,271a12.15,12.15,0,0,1-5,0,12.15,12.15,0,0,1,5,0Z" style="fill:currentColor"></path><path d="M407.63,271a12.15,12.15,0,0,1-5,0,12.15,12.15,0,0,1,5,0Z" style="fill:currentColor"></path><path d="M417.63,271a12.15,12.15,0,0,1-5,0,12.15,12.15,0,0,1,5,0Z" style="fill:currentColor"></path><path d="M424,274.67a6.31,6.31,0,0,1-.26-2.5c0-.41,0-.8,0-1.14l.23.24c-.81,0-1.36-.14-1.36-.24s.55-.19,1.36-.23h.22l0,.24c0,.34,0,.73,0,1.14A6.11,6.11,0,0,1,424,274.67Z" style="fill:currentColor"></path><path d="M424,284.67a12.15,12.15,0,0,1,0-5,12.15,12.15,0,0,1,0,5Z" style="fill:currentColor"></path><path d="M299.38,271.15c.09.11-25.22,20.78-56.54,46.15S186.06,363.16,186,363.05s25.22-20.77,56.55-46.15S299.29,271,299.38,271.15Z" style="fill:#e0e0e0"></path><path d="M299.38,363.71c-.09.12-25.54-20.52-56.84-46.07S185.92,271.26,186,271.15s25.54,20.52,56.86,46.08S299.48,363.6,299.38,363.71Z" style="fill:#e0e0e0"></path><path d="M226.29,314.59c0,2.88-2.16,4.67-5.61,4.67h-2.6v3.56h-3V309.9h5.59C224.13,309.9,226.29,311.69,226.29,314.59Zm-3,0c0-1.42-.93-2.25-2.76-2.25h-2.43v4.48h2.43C222.34,316.82,223.27,316,223.27,314.59Z" style="fill:currentColor"></path><path d="M238.55,317.14v5.68h-2.88v-5.24c0-1.61-.74-2.34-2-2.34s-2.38.85-2.38,2.67v4.91H228.4V309.13h2.88v4.8a4.34,4.34,0,0,1,3.16-1.19C236.78,312.74,238.55,314.11,238.55,317.14Z" style="fill:currentColor"></path><path d="M240.53,317.86a5.47,5.47,0,0,1,10.91,0c0,3-2.29,5.11-5.45,5.11S240.53,320.85,240.53,317.86Zm8,0a2.54,2.54,0,1,0-2.53,2.75A2.5,2.5,0,0,0,248.52,317.86Z" style="fill:currentColor"></path><path d="M259.77,322.34a4.08,4.08,0,0,1-2.35.63c-2.34,0-3.71-1.2-3.71-3.56v-4.08h-1.53v-2.22h1.53v-2.42h2.88v2.42h2.48v2.22h-2.48v4a1.16,1.16,0,0,0,1.24,1.31,1.91,1.91,0,0,0,1.16-.37Z" style="fill:currentColor"></path><path d="M260.34,317.86c0-3,2.31-5.12,5.47-5.12a5.12,5.12,0,1,1,0,10.23C262.65,323,260.34,320.85,260.34,317.86Zm8,0a2.55,2.55,0,1,0-2.53,2.75A2.5,2.5,0,0,0,268.34,317.86Z" style="fill:currentColor"></path><path d="M563.25,308.38c0,.14-50.78.26-113.41.26s-113.42-.12-113.42-.26,50.77-.27,113.42-.27S563.25,308.23,563.25,308.38Z" style="fill:#e0e0e0"></path><path d="M563.25,317.43c0,.15-50.78.26-113.41.26s-113.42-.11-113.42-.26,50.77-.26,113.42-.26S563.25,317.29,563.25,317.43Z" style="fill:#e0e0e0"></path><path d="M563.25,326.49c0,.14-50.78.26-113.41.26s-113.42-.12-113.42-.26,50.77-.26,113.42-.26S563.25,326.35,563.25,326.49Z" style="fill:#e0e0e0"></path><path d="M563.25,335.55c0,.14-50.78.26-113.41.26s-113.42-.12-113.42-.26,50.77-.26,113.42-.26S563.25,335.4,563.25,335.55Z" style="fill:#e0e0e0"></path><path d="M563.25,344.6c0,.15-50.78.27-113.41.27s-113.42-.12-113.42-.27,50.77-.26,113.42-.26S563.25,344.46,563.25,344.6Z" style="fill:#e0e0e0"></path><path d="M563.25,353.66c0,.15-50.78.26-113.41.26s-113.42-.11-113.42-.26,50.77-.26,113.42-.26S563.25,353.52,563.25,353.66Z" style="fill:#e0e0e0"></path><path d="M424.85,326h-4.14v-2.43H432V326h-4.13v10.49h-3Z" style="fill:currentColor"></path><path d="M442,332.36h-7.51a2.65,2.65,0,0,0,2.84,2,3.37,3.37,0,0,0,2.5-1l1.53,1.66a5.21,5.21,0,0,1-4.1,1.61c-3.43,0-5.67-2.16-5.67-5.12a5.05,5.05,0,0,1,5.3-5.11,4.92,4.92,0,0,1,5.17,5.15C442.09,331.8,442.05,332.12,442,332.36Zm-7.55-1.68h4.9a2.48,2.48,0,0,0-4.9,0Z" style="fill:currentColor"></path><path d="M450.05,336.51l-2.18-3.05-2.25,3.05h-3.14l3.82-5-3.69-4.93h3.23l2.1,2.9,2.16-2.9h3.07l-3.69,4.85,3.84,5.08Z" style="fill:currentColor"></path><path d="M461.13,336a4.16,4.16,0,0,1-2.35.63c-2.34,0-3.71-1.2-3.71-3.57V329h-1.53V326.8h1.53v-2.42H458v2.42h2.48V329H458v4.05a1.16,1.16,0,0,0,1.24,1.31,1.93,1.93,0,0,0,1.16-.37Z" style="fill:currentColor"></path><path d="M603,398.49c0-1.78-.09-137.08-.22-346.24l.22.22-448.4.05h0l.26-.27c0,124.74,0,242.75,0,346.24l-.23-.23,448.43.23-448.43.24h-.24v-.24c0-103.49,0-221.5,0-346.24V52h.29L603,52h.21v.21C603,261.41,603,396.71,603,398.49Z" style="fill:#263238"></path></g><g id="freepik--Plant--inject-151"><path d="M367.91,395.13c-.08.1-.72-.28-1.42-.85s-1.22-1.1-1.15-1.2.71.29,1.42.86S368,395,367.91,395.13Z" style="fill:#263238"></path><path d="M387.21,366.27a22,22,0,0,0-.66-8c-.85-2.56-2.82-4.92-5.46-5.46-3-.63-6.11,1.28-7.8,3.85s-2.27,5.7-2.77,8.74a309.26,309.26,0,0,0-3.79,63.46l12.35,1.73C384.5,408.42,386.23,389.06,387.21,366.27Z" style="fill:#455a64"></path><path d="M379.37,352.69s0,.07-.05.2-.13.33-.21.56l-.82,2.13c-.17.47-.4,1-.58,1.54s-.39,1.2-.6,1.87l-.7,2.15-.63,2.45a107.58,107.58,0,0,0-2.39,12.21c-.66,4.64-1.1,9.78-1.45,15.19-.63,10.81-.73,20.63-1,27.73-.13,3.55-.25,6.42-.38,8.4-.07,1-.12,1.72-.16,2.28,0,.24,0,.44-.05.6a1.12,1.12,0,0,1,0,.2.85.85,0,0,1,0-.21c0-.16,0-.35,0-.59,0-.56,0-1.32.07-2.29.09-2,.16-4.85.25-8.4.2-7.1.25-16.92.88-27.75.35-5.41.8-10.56,1.49-15.22a101.83,101.83,0,0,1,2.49-12.23c.23-.86.45-1.68.67-2.45s.49-1.47.72-2.15l.64-1.86c.19-.57.44-1.07.62-1.53l.9-2.11.25-.54A1.16,1.16,0,0,1,379.37,352.69Z" style="fill:#263238"></path><path d="M380.52,352.7a9,9,0,0,1,1.5,2.55,18.83,18.83,0,0,1,1.13,8c-.33,6.82-.94,16.22-1.75,26.59s-1.72,19.76-2.45,26.54c-.36,3.39-.68,6.14-.91,8-.12.91-.21,1.64-.28,2.18,0,.22-.06.41-.09.56s0,.19,0,.19,0-.06,0-.19,0-.34,0-.57c.05-.54.11-1.27.2-2.19.18-1.94.45-4.67.77-8,.65-6.79,1.5-16.17,2.32-26.54s1.47-19.78,1.88-26.57a19.31,19.31,0,0,0-1-7.91A17.83,17.83,0,0,0,380.52,352.7Z" style="fill:#263238"></path><path d="M389.07,384.64a6.56,6.56,0,0,1-2.34-.6,6.92,6.92,0,0,1-2.19-1,6.77,6.77,0,0,1,2.34.6A6.92,6.92,0,0,1,389.07,384.64Z" style="fill:#263238"></path><path d="M390.56,372.06a7.25,7.25,0,0,1-2.22,1.24,7.7,7.7,0,0,1-2.41.84,7.47,7.47,0,0,1,2.23-1.24A7.6,7.6,0,0,1,390.56,372.06Z" style="fill:#263238"></path><path d="M389.79,361.8a7.87,7.87,0,0,1-3.65-.25c0-.13.83-.17,1.84-.1A4,4,0,0,1,389.79,361.8Z" style="fill:#263238"></path><path d="M377.05,355.22c-.1.06-.64-.61-1.2-1.5A4.42,4.42,0,0,1,375,352c.1-.07.65.6,1.21,1.5S377.16,355.15,377.05,355.22Z" style="fill:#263238"></path><path d="M372.84,361.43a3.68,3.68,0,0,1-1.75.18c-1,0-1.75-.14-1.74-.26a3.68,3.68,0,0,1,1.75-.18C372.07,361.19,372.85,361.31,372.84,361.43Z" style="fill:#263238"></path><path d="M369.82,373.85a4.24,4.24,0,0,1-1.84-.51c-1-.39-1.73-.8-1.68-.91a4.14,4.14,0,0,1,1.84.5C369.11,373.33,369.87,373.74,369.82,373.85Z" style="fill:#263238"></path><path d="M369.5,384.3a3.5,3.5,0,0,1-1.57.55c-.89.19-1.64.24-1.66.12s.68-.36,1.57-.55S369.47,384.18,369.5,384.3Z" style="fill:#263238"></path><path d="M368.08,401.38c0,.12-.73.36-1.67.53a3.69,3.69,0,0,1-1.75.08c0-.12.73-.35,1.67-.52A3.61,3.61,0,0,1,368.08,401.38Z" style="fill:#263238"></path><path d="M367.13,410.82c.06.1-.56.54-1.39,1s-1.54.7-1.59.6.56-.55,1.39-1S367.08,410.71,367.13,410.82Z" style="fill:#263238"></path><path d="M374.83,421.52c-.1.06-.64-.69-1.21-1.67a5.14,5.14,0,0,1-.83-1.89c.11-.06.65.69,1.22,1.67A4.83,4.83,0,0,1,374.83,421.52Z" style="fill:#263238"></path><path d="M377.06,403.73c.08.09-.52.82-1.35,1.63s-1.58,1.41-1.66,1.32.52-.82,1.35-1.63S377,403.64,377.06,403.73Z" style="fill:#263238"></path><path d="M376.57,394.4c-.09.08-.65-.38-1.26-1s-1-1.25-.93-1.33.65.38,1.26,1S376.65,394.31,376.57,394.4Z" style="fill:#263238"></path><path d="M378.09,382.47c.09.08-.41.79-1.12,1.58s-1.36,1.38-1.46,1.29.42-.79,1.13-1.58S378,382.39,378.09,382.47Z" style="fill:#263238"></path><path d="M379,373.81c-.08.09-.78-.46-1.57-1.23s-1.34-1.46-1.26-1.55.79.46,1.57,1.23S379,373.72,379,373.81Z" style="fill:#263238"></path><path d="M380.64,362.11c.11.06-.24.85-.78,1.75s-1.07,1.59-1.17,1.53.25-.85.79-1.75S380.54,362.05,380.64,362.11Z" style="fill:#263238"></path><path d="M383.82,351.27c.11.05-.2.84-.69,1.75s-1,1.6-1.09,1.54.21-.84.7-1.75S383.72,351.21,383.82,351.27Z" style="fill:#263238"></path><path d="M387.43,356.19c.05.11-.44.46-1.1.77s-1.24.49-1.3.38.44-.46,1.11-.78S387.38,356.08,387.43,356.19Z" style="fill:#263238"></path><path d="M387.52,395.13a4.83,4.83,0,0,1-2.42-.58,4.92,4.92,0,0,1-2.09-1.34,101.61,101.61,0,0,1,4.51,1.92Z" style="fill:#263238"></path><path d="M386,403.38c0,.12-.72.37-1.66.55s-1.72.23-1.74.11.72-.36,1.66-.54S386,403.26,386,403.38Z" style="fill:#263238"></path><path d="M384.23,417.53a7,7,0,0,1-3.06-3.86,13.57,13.57,0,0,1,1.53,1.93A14.56,14.56,0,0,1,384.23,417.53Z" style="fill:#263238"></path><path d="M364.39,424c-.08-.09.42-.65,1.12-1.24s1.33-1,1.41-.92-.43.66-1.12,1.25S364.47,424.09,364.39,424Z" style="fill:#263238"></path><path d="M358.69,393.13c-.81-2.51-2.32-5.44-4.95-5.47a4.34,4.34,0,0,0-3.7,2.47,9,9,0,0,0-1,4.54,118.28,118.28,0,0,0,5.66,32.88h9.63A114.39,114.39,0,0,0,358.69,393.13Z" style="fill:#455a64"></path><path d="M341.26,377.34a10.72,10.72,0,0,0-10-8.57c-4.26.74-5.91,4.94-6.41,9.23s.82,8.57,2.14,12.69l12.69,39.68,12-1.31C347.83,411.34,345.65,394.92,341.26,377.34Z" style="fill:#455a64"></path><path d="M353.74,387.66a10.44,10.44,0,0,0-.82,1.36,9.18,9.18,0,0,0-.45,4.26c.19,1.83.4,4,.71,6.46s.75,5.07,1.29,7.84c1.09,5.53,2.32,10.5,3.1,14.12.39,1.81.69,3.28.88,4.3.08.47.14.86.2,1.18a1.81,1.81,0,0,1,0,.41s-.06-.13-.13-.4-.17-.69-.28-1.15l-1-4.27c-.86-3.6-2.13-8.56-3.22-14.11-.55-2.78-1-5.44-1.27-7.87-.15-1.22-.25-2.38-.35-3.47s-.21-2.09-.26-3a8.76,8.76,0,0,1,.61-4.35A3.88,3.88,0,0,1,353.74,387.66Z" style="fill:#263238"></path><path d="M331.4,368.43a14.54,14.54,0,0,0-1.45,1.94,13.7,13.7,0,0,0-1.83,6.28,29,29,0,0,0,1.49,9.65c1.05,3.57,2.21,7.48,3.42,11.59l6.13,21.1c.76,2.67,1.38,4.84,1.82,6.4.19.73.35,1.31.47,1.75a2.76,2.76,0,0,1,.13.62,4.14,4.14,0,0,1-.22-.6l-.55-1.72-1.94-6.37L332.6,398l-3.38-11.61a28.8,28.8,0,0,1-1.41-9.78,13.51,13.51,0,0,1,2-6.35A7.28,7.28,0,0,1,331.4,368.43Z" style="fill:#263238"></path><path d="M349,427.78a3.13,3.13,0,0,1-.27-.58c-.16-.38-.41-.94-.68-1.68-.57-1.48-1.31-3.64-2.06-6.37s-1.52-6-2.24-9.67-1.46-7.7-2.26-11.92-1.76-8.22-2.84-11.78a65.48,65.48,0,0,0-3.49-9.24,49.84,49.84,0,0,0-3.23-5.82c-.42-.68-.79-1.16-1-1.51a3.38,3.38,0,0,1-.34-.54,3.89,3.89,0,0,1,.41.49c.24.33.64.8,1.08,1.46a44.29,44.29,0,0,1,3.37,5.78,62.36,62.36,0,0,1,3.6,9.26,117.49,117.49,0,0,1,2.89,11.81c.78,4.23,1.54,8.26,2.22,11.93s1.42,7,2.14,9.67,1.4,4.9,1.92,6.39c.24.75.47,1.32.6,1.71A2.64,2.64,0,0,1,349,427.78Z" style="fill:#263238"></path><path d="M327.16,388.71c0,.12-.62.38-1.45.58s-1.53.27-1.56.15.62-.37,1.45-.58S327.14,388.59,327.16,388.71Z" style="fill:#263238"></path><path d="M325.89,380.53a14.73,14.73,0,0,1-4.05.16,7,7,0,0,1,4.05-.16Z" style="fill:#263238"></path><path d="M327.25,373.06c-.08.09-.73-.33-1.46-.95s-1.25-1.19-1.17-1.28.73.33,1.46.95S327.32,373,327.25,373.06Z" style="fill:#263238"></path><path d="M330.9,366.14c.12,0,.09.61.07,1.31s0,1.29-.14,1.31-.32-.57-.3-1.32S330.79,366.11,330.9,366.14Z" style="fill:#263238"></path><path d="M338.38,369.4c.1.07-.2.66-.66,1.32s-.91,1.13-1,1.06.19-.66.65-1.32S338.28,369.33,338.38,369.4Z" style="fill:#263238"></path><path d="M343.23,377.82c0,.12-.58.48-1.39.81s-1.51.5-1.55.39.57-.47,1.38-.8S343.18,377.71,343.23,377.82Z" style="fill:#263238"></path><path d="M346.17,386.49a5.51,5.51,0,0,1-4,.9,8.16,8.16,0,0,1,2-.5A8.31,8.31,0,0,1,346.17,386.49Z" style="fill:#263238"></path><path d="M332.66,384c-.12,0,0-.64.19-1.34s.49-1.24.61-1.2,0,.63-.19,1.33S332.78,384.07,332.66,384Z" style="fill:#263238"></path><path d="M334.54,394.91a4.32,4.32,0,0,1,.55-1.8c.41-.94.83-1.67.94-1.62s-.13.85-.54,1.8S334.66,395,334.54,394.91Z" style="fill:#263238"></path><path d="M329.89,397.89c-.05.12-.81-.09-1.73-.38s-1.66-.55-1.63-.67.82,0,1.76.25S329.94,397.78,329.89,397.89Z" style="fill:#263238"></path><path d="M332.57,406.77c.07.1-.44.58-1.14,1.09s-1.34.83-1.41.73.45-.59,1.15-1.09S332.5,406.67,332.57,406.77Z" style="fill:#263238"></path><path d="M334.73,415.61c0,.12-.61.38-1.42.58s-1.5.26-1.53.14.61-.37,1.42-.57S334.7,415.5,334.73,415.61Z" style="fill:#263238"></path><path d="M346.41,393.88c.06.11-.49.54-1.28.84s-1.48.33-1.5.21.6-.34,1.35-.63S346.34,393.78,346.41,393.88Z" style="fill:#263238"></path><path d="M348.08,407.65c-.06.11-.7-.09-1.45-.44s-1.31-.72-1.26-.83.7.08,1.45.43S348.13,407.54,348.08,407.65Z" style="fill:#263238"></path><path d="M351,417.5a4.74,4.74,0,0,1-1.91-.51c-1-.4-1.79-.81-1.75-.93a4.63,4.63,0,0,1,1.91.52C350.28,417,351.07,417.38,351,417.5Z" style="fill:#263238"></path><path d="M335.2,425.21c-.06-.11.72-.64,1.63-1.35s1.61-1.35,1.71-1.27-.49.87-1.44,1.61A3.83,3.83,0,0,1,335.2,425.21Z" style="fill:#263238"></path><path d="M343,420.21c-.13,0-.3-.65-.6-1.42s-.61-1.38-.51-1.45.6.46.92,1.29S343.1,420.2,343,420.21Z" style="fill:#263238"></path><path d="M340.92,408.36c-.07.1-.57-.14-1.12-.54s-.94-.79-.87-.89.58.14,1.12.54S341,408.26,340.92,408.36Z" style="fill:#263238"></path><path d="M359.07,389.8c.08.09-.41.58-1.09,1.08s-1.28.82-1.36.72.42-.58,1.1-1.08S359,389.7,359.07,389.8Z" style="fill:#263238"></path><path d="M361.81,397.28a2.74,2.74,0,0,1-1.7.17c-.95-.1-1.67-.42-1.63-.53s.77,0,1.67.09S361.8,397.15,361.81,397.28Z" style="fill:#263238"></path><path d="M350.05,399c0,.12-.68.37-1.6.43s-1.66-.09-1.65-.21.74-.17,1.62-.23S350,398.83,350.05,399Z" style="fill:#263238"></path><path d="M351.06,391.88c0,.12-.73.14-1.51-.23s-1.24-.91-1.16-1,.63.28,1.34.6S351.08,391.76,351.06,391.88Z" style="fill:#263238"></path><path d="M362.82,405.31c-.06.1-.8-.25-1.64-.78s-1.47-1-1.41-1.14.8.24,1.64.77S362.89,405.2,362.82,405.31Z" style="fill:#263238"></path><rect x="328.77" y="426.3" width="62.75" height="11.12" style="fill:currentColor"></rect><polygon points="333.46 435.21 341.09 468.44 378.48 468.44 386.83 435.21 333.46 435.21" style="fill:currentColor"></polygon><path d="M391.48,437.43c0,.12-14.15.22-31.61.22s-31.61-.1-31.61-.22,14.15-.22,31.61-.22S391.48,437.31,391.48,437.43Z" style="fill:#263238"></path><path d="M356.59,399.2c-.11.06-.53-.44-1-1.12s-.69-1.29-.58-1.35.53.43.95,1.12S356.69,399.13,356.59,399.2Z" style="fill:#263238"></path><path d="M356.61,408.14a3.55,3.55,0,0,1,.33-1.69c.3-.89.63-1.58.75-1.54a3.67,3.67,0,0,1-.33,1.68C357.06,407.49,356.73,408.18,356.61,408.14Z" style="fill:#263238"></path><path d="M359.67,417.54c-.11,0-.58-.7-1-1.68A4.57,4.57,0,0,1,358,414c.11-.05.58.7,1,1.68A4.52,4.52,0,0,1,359.67,417.54Z" style="fill:#263238"></path><path d="M353.05,425.09c-.1-.08.28-.66.83-1.3s1.08-1.09,1.17-1-.28.66-.83,1.3S353.14,425.17,353.05,425.09Z" style="fill:#263238"></path><path d="M351.66,411.37c0,.12-.63.12-1.35,0s-1.3-.33-1.27-.45.62-.11,1.34,0S351.68,411.25,351.66,411.37Z" style="fill:#263238"></path></g></svg>
