<svg xmlns="http://www.w3.org/2000/svg" viewBox="0 0 750 500"><g id="freepik--background-complete--inject-257"><rect x="242.4" y="107.14" width="56.7" height="77.59" transform="translate(-24.71 60.45) rotate(-12.19)" style="fill:#f5f5f5"></rect><rect x="365.24" y="70.85" width="188.89" height="122.83" style="fill:#f5f5f5"></rect><circle cx="459.68" cy="127.08" r="25.7" transform="translate(229.29 544.66) rotate(-76.57)" style="fill:#e0e0e0"></circle><polygon points="468.32 127.08 461.61 130.95 454.89 134.83 454.89 127.08 454.89 119.33 461.61 123.2 468.32 127.08" style="fill:#f5f5f5"></polygon><rect x="365.24" y="171.62" width="188.89" height="22.07" style="fill:#e0e0e0"></rect><polygon points="383.59 182.65 380.87 184.23 378.14 185.8 378.14 182.65 378.14 179.51 380.87 181.08 383.59 182.65" style="fill:#f5f5f5"></polygon><rect x="399.25" y="182.15" width="139.33" height="1" style="fill:#f5f5f5"></rect><path d="M402.07,182.65a2.08,2.08,0,1,1-2.08-2.07A2.08,2.08,0,0,1,402.07,182.65Z" style="fill:#f5f5f5"></path><rect x="498.94" y="159.32" width="193.38" height="174.28" rx="5.49" style="fill:#f5f5f5"></rect><path d="M505.35,159.32H685.91a6.41,6.41,0,0,1,6.41,6.41v13.05a0,0,0,0,1,0,0H498.94a0,0,0,0,1,0,0V165.73A6.41,6.41,0,0,1,505.35,159.32Z" style="fill:#ebebeb"></path><circle cx="510.74" cy="169.08" r="1.53" style="fill:#fafafa"></circle><path d="M521.42,169.08a1.53,1.53,0,1,1-1.53-1.52A1.53,1.53,0,0,1,521.42,169.08Z" style="fill:#fafafa"></path><circle cx="529.04" cy="169.08" r="1.53" style="fill:#fafafa"></circle><rect x="596.04" y="194.47" width="73.02" height="2.64" style="fill:#fafafa"></rect><rect x="596.04" y="205.34" width="73.02" height="2.64" style="fill:#fafafa"></rect><rect x="596.04" y="216.22" width="73.02" height="2.64" style="fill:#fafafa"></rect><rect x="596.04" y="227.1" width="73.02" height="2.64" style="fill:#fafafa"></rect><rect x="596.04" y="237.97" width="36.51" height="2.64" style="fill:#fafafa"></rect><rect x="518.49" y="259.36" width="73.02" height="2.64" transform="translate(1109.99 521.37) rotate(180)" style="fill:#fafafa"></rect><rect x="518.49" y="270.24" width="73.02" height="2.64" transform="translate(1109.99 543.12) rotate(180)" style="fill:#fafafa"></rect><rect x="518.49" y="281.11" width="73.02" height="2.64" transform="translate(1109.99 564.87) rotate(180)" style="fill:#fafafa"></rect><rect x="518.49" y="291.99" width="73.02" height="2.64" transform="translate(1109.99 586.62) rotate(180)" style="fill:#fafafa"></rect><rect x="555" y="302.86" width="36.51" height="2.64" transform="translate(1146.5 608.37) rotate(180)" style="fill:#fafafa"></rect><rect x="604.12" y="256.44" width="62.49" height="51.99" style="fill:#fafafa"></rect><polygon points="604.02 292.73 622.48 279.79 635.37 288.71 655.63 271.56 666.61 282.44 666.61 308.43 604.12 308.43 604.02 292.73" style="fill:#ebebeb"></polygon><circle cx="636.45" cy="271.56" r="5.23" style="fill:#ebebeb"></circle><rect x="518.49" y="192.87" width="62.49" height="51.99" style="fill:#fafafa"></rect><polygon points="518.38 229.16 536.84 216.22 549.73 225.13 569.99 207.99 580.97 218.86 580.97 244.86 518.49 244.86 518.38 229.16" style="fill:#ebebeb"></polygon><circle cx="550.81" cy="207.99" r="5.23" style="fill:#ebebeb"></circle><path d="M58.64,240.54H291.28a0,0,0,0,1,0,0V361.9a4.65,4.65,0,0,1-4.65,4.65H63.29a4.65,4.65,0,0,1-4.65-4.65V240.54A0,0,0,0,1,58.64,240.54Z" style="fill:#f5f5f5"></path><rect x="58.64" y="240.54" width="232.64" height="23.41" style="fill:#ebebeb"></rect><circle cx="72.83" cy="252.29" r="1.84" style="fill:#fafafa"></circle><circle cx="83.84" cy="252.29" r="1.84" style="fill:#fafafa"></circle><circle cx="94.85" cy="252.29" r="1.84" style="fill:#fafafa"></circle><rect x="175.46" y="282.83" width="87.85" height="3.18" style="fill:#ebebeb"></rect><rect x="175.46" y="295.91" width="87.85" height="3.18" style="fill:#ebebeb"></rect><rect x="175.46" y="308.99" width="87.85" height="3.18" style="fill:#ebebeb"></rect><rect x="175.46" y="322.08" width="87.85" height="3.18" style="fill:#ebebeb"></rect><rect x="175.46" y="335.16" width="43.92" height="3.18" style="fill:#ebebeb"></rect><rect x="77.99" y="280.6" width="75.17" height="62.55" style="fill:#fafafa"></rect><polygon points="77.86 324.26 100.08 308.69 115.58 319.42 139.95 298.79 153.16 311.87 153.16 343.15 77.99 343.15 77.86 324.26" style="fill:#ebebeb"></polygon><path d="M123.17,298.79a6.3,6.3,0,1,1-6.29-6.3A6.3,6.3,0,0,1,123.17,298.79Z" style="fill:#ebebeb"></path></g><g id="freepik--Document--inject-257"><rect x="235.41" y="120.83" width="56.7" height="77.59" transform="translate(-27.75 59.28) rotate(-12.19)" style="fill:#fff"></rect><path d="M299.65,191.56l-.09-.37c-.06-.25-.14-.61-.24-1.07-.22-1-.53-2.34-.93-4.13-.79-3.63-1.95-8.9-3.42-15.57-2.91-13.34-7-32.26-11.92-54.65l.28.18-55.41,12h0l.2-.31c6.1,28.33,11.75,54.56,16.33,75.85l-.25-.17,40.27-8.58,11.21-2.37,3-.61,1-.2s-.32.09-1,.24l-2.91.65-11.14,2.46-40.35,8.83-.21,0,0-.2c-4.61-21.29-10.29-47.51-16.43-75.83l0-.26.25,0h0l55.42-12,.23,0,.05.23c4.8,22.48,8.86,41.47,11.72,54.85,1.41,6.66,2.53,11.92,3.29,15.54.38,1.78.66,3.16.86,4.1l.21,1.05A3.53,3.53,0,0,1,299.65,191.56Z" style="fill:#263238"></path><path d="M265,135.61c0,.15-6,1.56-13.41,3.17s-13.49,2.79-13.52,2.65,6-1.55,13.41-3.16S265,135.47,265,135.61Z" style="fill:#263238"></path><path d="M281,139.06c0,.14-9.24,2.26-20.69,4.73s-20.78,4.37-20.81,4.23,9.24-2.26,20.7-4.73S281,138.92,281,139.06Z" style="fill:#263238"></path><path d="M282.51,145.93c0,.14-9.23,2.26-20.69,4.74S241.05,155,241,154.9s9.23-2.26,20.69-4.74S282.48,145.79,282.51,145.93Z" style="fill:#263238"></path><path d="M284,152.81c0,.14-9.24,2.26-20.69,4.73s-20.78,4.37-20.81,4.23,9.23-2.26,20.7-4.73S284,152.67,284,152.81Z" style="fill:#263238"></path><path d="M285.48,159.68c0,.14-9.23,2.26-20.69,4.74S244,168.79,244,168.65s9.23-2.26,20.69-4.74S285.45,159.54,285.48,159.68Z" style="fill:#263238"></path><path d="M287,166.56c0,.14-9.24,2.26-20.69,4.73s-20.78,4.37-20.81,4.23,9.23-2.26,20.7-4.74S286.94,166.42,287,166.56Z" style="fill:#263238"></path><path d="M288.45,173.43c0,.14-9.23,2.26-20.69,4.74S247,182.54,247,182.4s9.23-2.26,20.69-4.74S288.42,173.29,288.45,173.43Z" style="fill:#263238"></path><path d="M270.75,184.45c0,.14-4.94,1.34-11.1,2.67s-11.18,2.29-11.21,2.15,4.94-1.33,11.1-2.66S270.72,184.31,270.75,184.45Z" style="fill:#263238"></path></g><g id="freepik--Pointer--inject-257"><polygon points="542.57 309.85 556.75 346.26 562.67 336.71 570.86 347.47 580.63 338.18 571.32 329.2 579.91 323.39 542.57 309.85" style="fill:currentColor"></polygon><path d="M537.23,315.23a38.17,38.17,0,0,1-5.17,3.59,37.45,37.45,0,0,1-5.45,3.14,39.52,39.52,0,0,1,5.17-3.58A38.14,38.14,0,0,1,537.23,315.23Z" style="fill:#263238"></path><path d="M538.33,307.89a9.48,9.48,0,0,1-2.28-.6c-1.38-.44-3.28-1.11-5.33-2s-3.89-1.65-5.2-2.27a10.68,10.68,0,0,1-2.08-1.1,10.56,10.56,0,0,1,2.22.76l5.25,2.13,5.27,2.09A11,11,0,0,1,538.33,307.89Z" style="fill:#263238"></path><path d="M542.61,291.36a7.91,7.91,0,0,1,.52,2c.24,1.25.53,3,.77,4.93s.4,3.7.47,5a7.85,7.85,0,0,1,0,2.08,68.77,68.77,0,0,1-1-7A66.16,66.16,0,0,1,542.61,291.36Z" style="fill:#263238"></path><path d="M562.24,299.51c.06.14-2.56,1.27-5.52,3.17s-5.3,3.55-5.39,3.42.49-.54,1.41-1.25a44.48,44.48,0,0,1,3.7-2.61A19.23,19.23,0,0,1,562.24,299.51Z" style="fill:#263238"></path></g><g id="freepik--Plus--inject-257"><path d="M212.61,316.05a29.6,29.6,0,0,0-.67-4.41,17.62,17.62,0,0,0-2-4.78,18.12,18.12,0,0,0-4.59-5.09,17.93,17.93,0,0,0-17-2.54,17.17,17.17,0,0,0-4.53,2.44,16.28,16.28,0,0,0-3.78,3.81,17.79,17.79,0,0,0,0,21.14,16.5,16.5,0,0,0,3.78,3.8,16.89,16.89,0,0,0,4.53,2.44,17.93,17.93,0,0,0,17-2.54,18.23,18.23,0,0,0,4.59-5.08,17.66,17.66,0,0,0,2-4.79,29.59,29.59,0,0,0,.67-4.4s0,.1,0,.29l0,.87a7.68,7.68,0,0,1-.12,1.4,12.09,12.09,0,0,1-.34,1.89,17,17,0,0,1-2,4.88,18.34,18.34,0,0,1-12.32,8.7,18.42,18.42,0,0,1-9.65-.77,17,17,0,0,1-4.65-2.49,16.92,16.92,0,0,1-3.9-3.9,18.27,18.27,0,0,1,0-21.75,23.12,23.12,0,0,1,1.81-2.13,22,22,0,0,1,2.09-1.77,17.58,17.58,0,0,1,4.65-2.49,18.31,18.31,0,0,1,9.65-.76,18.29,18.29,0,0,1,12.32,8.69,17.12,17.12,0,0,1,2,4.88,12.09,12.09,0,0,1,.34,1.89,7.85,7.85,0,0,1,.12,1.41l0,.86C212.62,316,212.61,316.05,212.61,316.05Z" style="fill:#263238"></path><path d="M194.46,325.16a81.06,81.06,0,0,1-.26-9.11,81.06,81.06,0,0,1,.26-9.11,76.87,76.87,0,0,1,.27,9.11A76.87,76.87,0,0,1,194.46,325.16Z" style="fill:#263238"></path><path d="M203.57,316.05a80.8,80.8,0,0,1-9.1.26,80.91,80.91,0,0,1-9.11-.26,78.16,78.16,0,0,1,9.11-.26A78.06,78.06,0,0,1,203.57,316.05Z" style="fill:#263238"></path></g></svg>
